<?xml version="1.0" standalone="no"?>
<!DOCTYPE svg PUBLIC "-//W3C//DTD SVG 20010904//EN"
 "http://www.w3.org/TR/2001/REC-SVG-20010904/DTD/svg10.dtd">
<svg version="1.0" xmlns="http://www.w3.org/2000/svg"
 width="1024.000000pt" height="1024.000000pt" viewBox="0 0 1024.000000 1024.000000"
 preserveAspectRatio="xMidYMid meet">
<metadata>
Created by potrace 1.14, written by Peter Selinger 2001-2017
</metadata>
<g transform="translate(0.000000,1024.000000) scale(0.100000,-0.100000)"
fill="#000000" stroke="none">
<path d="M6193 9912 c-20 -3 -23 -9 -24 -55 0 -29 -2 -90 -4 -137 -4 -122 -15
-473 -20 -625 -11 -379 -17 -562 -20 -675 -2 -69 -7 -208 -10 -310 -3 -102 -7
-255 -10 -340 -15 -466 -24 -765 -29 -942 -2 -68 1 -95 8 -91 7 4 6 1 -1 -8
-10 -13 -15 -108 -27 -566 0 -28 -4 -54 -7 -58 -6 -5 -18 53 -24 110 -1 12
-16 94 -21 115 -2 8 -10 44 -18 80 -8 36 -26 110 -41 165 -14 55 -28 107 -30
116 -2 9 -11 39 -20 65 -9 27 -18 56 -20 64 -2 8 -11 35 -20 60 -9 25 -25 70
-35 101 -11 31 -33 87 -50 125 -17 38 -31 70 -30 72 3 6 -134 287 -184 378
-60 111 -169 289 -205 336 -12 14 -21 31 -21 37 0 6 -4 11 -10 11 -5 0 -10 6
-10 14 0 8 -4 16 -8 18 -4 2 -27 31 -51 66 -24 34 -48 62 -52 62 -5 0 -9 5 -9
11 0 10 -70 100 -101 129 -9 8 -18 20 -20 27 -10 28 -286 314 -414 428 -37 33
-72 65 -79 70 -6 6 -33 28 -61 50 -27 22 -63 52 -80 67 -16 16 -34 28 -40 28
-5 0 -23 14 -39 30 -16 16 -33 27 -37 24 -5 -3 -9 -1 -9 4 0 20 -317 222 -510
324 -41 22 -81 45 -89 52 -8 6 -16 10 -17 9 -2 -1 -45 17 -96 41 -51 25 -100
46 -108 48 -8 2 -17 5 -20 8 -3 3 -39 18 -80 34 -41 16 -84 32 -95 36 -61 24
-91 35 -95 35 -3 0 -9 3 -15 7 -8 5 -56 20 -105 33 -3 1 -39 12 -80 25 -41 12
-81 23 -87 23 -7 0 -13 4 -13 8 0 5 -7 6 -15 3 -8 -4 -22 -1 -30 6 -8 7 -15
10 -15 7 0 -3 -21 0 -47 8 -27 7 -64 15 -83 17 -19 2 -37 6 -40 9 -3 4 -21 9
-40 12 -19 3 -113 19 -209 36 -96 17 -176 29 -178 27 -4 -3 -31 -139 -38 -191
-2 -16 -7 -41 -9 -55 -3 -14 -7 -41 -10 -60 -3 -19 -8 -46 -11 -60 -5 -26 -20
-115 -30 -185 -4 -22 -10 -56 -15 -75 -5 -19 -12 -55 -15 -80 -3 -25 -8 -52
-10 -60 -2 -8 -6 -33 -9 -55 -4 -22 -10 -62 -16 -90 -5 -27 -11 -63 -14 -80
-3 -16 -9 -55 -15 -85 -13 -74 -13 -77 -55 -320 -3 -14 -7 -41 -10 -60 -10
-63 -25 -147 -31 -175 -2 -5 -5 -26 -8 -45 -11 -66 -38 -225 -43 -250 -10 -52
-25 -136 -30 -170 -2 -19 -7 -46 -10 -60 -2 -14 -6 -36 -9 -50 -57 -328 -55
-313 -37 -326 9 -7 19 -11 22 -9 3 2 28 -1 55 -5 28 -5 68 -11 90 -15 50 -8
70 -12 119 -24 22 -5 43 -8 47 -5 4 2 10 0 14 -6 3 -5 16 -10 28 -10 29 0 193
-54 270 -89 34 -15 77 -34 94 -42 18 -8 33 -18 33 -22 0 -5 4 -6 9 -2 5 3 13
0 17 -6 3 -6 21 -17 38 -25 33 -15 68 -35 76 -45 3 -3 32 -24 65 -47 106 -76
310 -266 306 -286 -1 -4 9 -17 21 -29 33 -32 88 -104 88 -116 0 -5 3 -11 8
-13 20 -9 174 -303 187 -358 2 -9 26 -85 32 -100 3 -8 7 -19 8 -25 2 -5 7 -28
13 -50 15 -55 23 -93 29 -140 2 -22 8 -42 11 -45 8 -6 10 -43 13 -215 2 -142
-3 -209 -26 -340 -9 -52 -37 -172 -45 -190 -4 -11 -20 -56 -35 -100 -15 -44
-31 -84 -36 -90 -5 -5 -9 -17 -9 -27 0 -10 -4 -18 -9 -18 -5 0 -11 -11 -15
-23 -7 -29 -115 -211 -127 -215 -5 -2 -9 -10 -9 -18 0 -8 -4 -14 -10 -14 -5 0
-10 -5 -10 -10 0 -6 -5 -16 -10 -23 -45 -53 -60 -73 -60 -80 0 -5 -4 -5 -10
-2 -5 3 -10 1 -10 -6 0 -13 -216 -229 -230 -229 -5 0 -15 -6 -22 -13 -18 -18
-120 -92 -138 -100 -8 -4 -28 -16 -45 -27 -43 -27 -179 -94 -188 -92 -4 1 -7
-2 -7 -8 0 -6 -3 -9 -7 -8 -5 1 -24 -4 -43 -11 -19 -8 -37 -14 -40 -15 -3 -1
-10 -4 -16 -8 -6 -4 -31 -12 -55 -18 -66 -16 -74 -18 -74 -20 0 -2 -26 -9 -95
-23 -61 -12 -76 -16 -82 -18 -32 -13 -402 -17 -478 -6 -30 5 -73 10 -95 13
-22 2 -51 6 -65 9 -14 3 -38 8 -55 10 -38 6 -70 13 -70 15 0 1 -19 3 -42 5
-29 3 -43 0 -44 -8 0 -7 -2 -23 -5 -37 -2 -14 -13 -74 -24 -135 -11 -60 -22
-126 -25 -145 -7 -42 -16 -98 -21 -125 -3 -11 -7 -33 -9 -50 -3 -16 -12 -66
-20 -110 -8 -44 -17 -96 -20 -115 -3 -19 -21 -123 -40 -230 -19 -107 -37 -211
-40 -230 -32 -186 -46 -264 -50 -283 -3 -12 -7 -38 -10 -57 -2 -19 -16 -100
-30 -180 -14 -80 -28 -158 -30 -175 -3 -16 -7 -41 -10 -55 -3 -14 -7 -38 -10
-55 -3 -16 -7 -41 -10 -55 -3 -14 -7 -38 -9 -55 -5 -30 -24 -139 -56 -320 -10
-55 -17 -101 -15 -103 3 -3 38 -11 80 -18 17 -3 66 -12 110 -19 84 -15 115
-20 180 -30 23 -3 52 -8 65 -10 85 -17 408 -38 585 -38 118 -1 304 8 395 18
19 2 62 6 95 9 33 4 73 9 90 13 16 3 46 7 65 9 30 3 82 12 115 20 11 2 56 11
106 19 18 3 41 11 52 16 14 8 18 8 13 0 -5 -8 1 -8 21 0 15 6 55 17 88 25 33
8 65 16 70 18 6 1 30 8 55 15 25 7 52 15 60 16 8 2 35 11 60 20 25 9 52 18 60
20 68 17 330 120 458 181 51 24 97 44 102 44 4 0 10 3 12 8 2 4 48 30 103 57
55 28 102 53 105 56 3 3 28 18 55 34 28 15 69 40 93 56 24 16 47 29 53 29 5 0
9 5 9 10 0 6 7 10 15 10 8 0 15 5 15 10 0 6 6 10 14 10 8 0 16 3 18 8 2 4 32
27 68 51 36 25 67 48 68 53 2 4 8 8 14 8 5 0 15 6 23 12 7 7 25 22 41 33 39
28 158 127 166 140 4 5 8 7 8 3 0 -18 373 348 460 452 25 30 55 65 67 79 31
35 33 38 83 106 25 33 50 65 55 72 6 7 15 18 21 25 36 44 179 261 193 295 5
11 14 24 20 27 5 4 20 28 33 54 13 26 26 49 29 52 8 6 189 365 189 374 0 4 10
28 21 54 31 67 108 268 125 327 8 28 18 57 21 65 3 8 7 20 9 25 1 6 12 44 24
85 12 41 23 83 25 93 3 10 7 27 10 37 7 21 8 27 30 130 9 41 17 80 19 85 4 10
1 -132 -9 -455 -6 -213 -14 -463 -20 -670 -3 -91 -7 -246 -11 -345 -3 -99 -7
-232 -9 -295 -3 -113 -14 -468 -20 -665 -11 -352 -17 -562 -16 -572 2 -21 1
-34 -3 -118 -3 -44 -7 -163 -10 -265 -3 -102 -8 -275 -12 -385 -4 -110 -7
-270 -8 -355 l-1 -155 443 0 c244 0 445 2 447 5 2 4 7 105 10 226 4 120 8 269
10 329 4 101 8 230 20 641 2 83 7 230 10 325 14 441 25 787 30 979 6 195 15
517 20 670 8 243 15 467 20 650 3 102 7 248 10 325 6 184 15 474 20 655 2 80
6 219 10 310 5 153 8 269 20 670 9 302 16 527 20 650 3 69 7 220 10 335 3 116
8 264 10 330 2 66 7 203 10 305 3 102 8 246 10 320 2 74 7 232 10 350 3 118 8
276 11 350 2 74 6 209 9 300 4 164 10 346 21 658 l5 162 -198 1 c-109 0 -301
1 -428 2 -126 1 -240 1 -252 -1z"/>
<path d="M8160 9805 c-5 -6 -5 -17 0 -25 5 -8 6 -18 3 -24 -6 -10 -15 -159
-17 -298 0 -43 -5 -78 -10 -78 -5 0 -3 -6 3 -13 6 -8 8 -17 4 -21 -4 -4 -8
-37 -9 -74 -3 -128 -14 -315 -20 -323 -3 -5 0 -9 6 -9 6 0 8 -5 4 -12 -8 -12
-10 -45 -19 -248 -3 -74 -8 -189 -12 -255 -3 -66 -6 -162 -7 -212 -1 -51 -3
-93 -6 -93 -4 0 -6 -24 -7 -52 0 -50 -6 -183 -18 -418 -3 -58 -7 -145 -9 -193
-2 -48 -6 -91 -10 -94 -3 -3 -1 -14 5 -24 6 -13 6 -19 0 -19 -7 0 -7 -9 -1
-25 5 -14 6 -25 1 -25 -4 0 -8 -19 -8 -42 0 -24 -3 -99 -7 -168 -3 -69 -9
-174 -12 -234 -2 -60 -7 -113 -10 -118 -3 -4 1 -8 8 -8 8 0 9 -3 3 -8 -5 -4
-10 -43 -10 -87 0 -44 -3 -87 -7 -96 -4 -8 -3 -21 2 -29 5 -8 6 -19 2 -25 -4
-5 -7 -26 -8 -45 -5 -117 -19 -405 -29 -595 -3 -55 -7 -145 -9 -200 -3 -55 -7
-143 -10 -195 -3 -52 -8 -153 -12 -225 -13 -273 -15 -301 -17 -330 -2 -16 1
-38 6 -49 6 -12 5 -16 -1 -12 -5 3 -9 -6 -9 -22 1 -65 -13 -314 -18 -323 -4
-5 -1 -9 5 -9 7 0 8 -5 3 -12 -4 -7 -9 -47 -11 -88 -2 -78 -7 -167 -16 -355
-3 -60 -8 -162 -11 -225 -3 -63 -8 -160 -11 -215 -3 -55 -6 -137 -7 -182 -1
-46 -5 -83 -9 -83 -4 0 -3 -13 2 -30 5 -16 6 -30 2 -30 -4 0 -8 -21 -8 -48 -3
-93 -13 -337 -14 -337 -1 0 -3 -40 -5 -90 -8 -211 -15 -317 -20 -326 -4 -5 -1
-9 5 -9 6 0 8 -5 4 -12 -8 -12 -9 -32 -19 -258 -6 -138 -9 -208 -20 -410 -3
-63 -8 -167 -11 -230 -4 -99 -7 -138 -13 -172 0 -5 -166 -8 -369 -8 l-367 0 0
-537 0 -538 770 2 c1037 2 1349 6 1357 18 3 6 9 80 13 165 4 85 8 180 10 210
2 30 7 118 10 195 3 77 7 174 10 215 2 41 7 131 10 200 4 69 8 159 10 200 3
41 7 134 10 205 3 72 8 162 10 200 2 39 6 135 10 215 4 80 8 168 10 195 2 28
7 111 10 185 3 74 7 167 9 205 2 39 7 138 11 220 4 83 9 173 10 200 2 28 6
113 9 190 3 77 8 175 10 218 3 43 8 139 11 215 3 75 8 171 11 212 2 41 6 122
9 180 5 131 14 294 21 430 3 58 7 140 8 182 1 43 5 81 9 84 3 4 2 14 -3 24 -5
10 -6 20 -3 24 3 3 7 45 9 93 2 49 5 135 8 193 11 205 22 421 30 605 4 72 8
168 11 215 3 47 7 141 10 210 4 69 8 154 11 190 2 36 6 119 9 185 2 66 7 163
9 215 3 52 8 151 11 220 3 69 7 161 10 205 2 44 7 141 10 215 4 74 8 164 10
200 3 36 7 128 11 205 9 213 9 219 17 233 5 6 4 12 -2 12 -7 0 -7 8 -1 25 6
17 6 25 -1 25 -6 0 -7 4 -4 10 6 10 9 51 20 295 4 77 9 174 11 215 2 41 6 120
8 175 3 55 8 161 12 235 4 74 7 152 6 172 0 22 4 35 10 32 6 -4 5 3 -1 15 -8
14 -9 27 -2 39 7 13 6 23 -1 30 -7 7 -8 12 -3 12 6 0 11 35 11 78 3 150 11
290 19 302 5 9 4 11 -3 6 -9 -5 -10 0 -4 16 4 13 7 39 7 58 l0 35 -718 0
c-501 1 -721 -2 -727 -10z"/>
</g>
</svg>
